<svg xmlns="http://www.w3.org/2000/svg" version="1.1" xmlns:xlink="http://www.w3.org/1999/xlink" xmlns:svgjs="http://svgjs.dev/svgjs" width="1000" height="623" viewBox="0 0 1000 623"><g transform="matrix(1,0,0,1,-0.6060606060606233,38.96970837933998)"><svg viewBox="0 0 396 247" data-background-color="#ffffff" preserveAspectRatio="xMidYMid meet" height="623" width="1000" xmlns="http://www.w3.org/2000/svg" xmlns:xlink="http://www.w3.org/1999/xlink"><g id="tight-bounds" transform="matrix(1,0,0,1,0.2400000000000091,-0.09999999999999432)"><svg viewBox="0 0 395.52 247.2" height="247.2" width="395.52"><g><svg></svg></g><g><svg viewBox="0 0 395.52 247.2" height="247.2" width="395.52"><g transform="matrix(1,0,0,1,75.54432,50.504869434561016)"><svg viewBox="0 0 244.43135999999998 146.19026113087796" height="146.19026113087796" width="244.43135999999998"><g><svg viewBox="0 0 244.43135999999998 146.19026113087796" height="146.19026113087796" width="244.43135999999998"><g><svg viewBox="0 0 244.43135999999998 146.19026113087796" height="146.19026113087796" width="244.43135999999998"><g transform="matrix(1,0,0,1,0,90.35144624128806)"><svg viewBox="0 0 244.43135999999998 55.8388148895899" height="55.8388148895899" width="244.43135999999998"><g><svg viewBox="0 0 244.43135999999998 55.8388148895899" height="55.8388148895899" width="244.43135999999998"><g><svg viewBox="0 0 244.43135999999998 55.8388148895899" height="55.8388148895899" width="244.43135999999998"><g transform="matrix(1,0,0,1,0,0)"><svg width="244.43135999999998" viewBox="1.55 -42.95 190.19 43.45" height="55.8388148895899" data-palette-color="#000000"><path d="M24.15-39.8Q29.75-39.8 34.08-37.33 38.4-34.85 40.78-30.45 43.15-26.05 43.15-20.5L43.15-20.5Q43.15-14.8 39.58-9.98 36-5.15 30.7-2.33 25.4 0.5 20.6 0.5L20.6 0.5Q18.3 0.5 16.05 0.25L16.05 0.25Q12.3 0 10.3 0L10.3 0 2.4 0 2.4-2.8 7.1-6.5 7.1-34.35 1.55-36.05 3.2-39.3 10.25-39.3Q14.85-39.3 19.25-39.6L19.25-39.6Q22.65-39.8 24.15-39.8L24.15-39.8ZM22.05-4.15Q25.2-4.15 27.78-5.95 30.35-7.75 31.83-10.95 33.3-14.15 33.3-18.15L33.3-18.15Q33.3-22.95 31.88-26.83 30.45-30.7 27.53-33.02 24.6-35.35 20.3-35.35L20.3-35.35Q18.05-35.35 16.15-34.15L16.15-34.15 16.15-5.1Q18.7-4.15 22-4.15L22-4.15 22.05-4.15ZM78.6-3.25L77 0 65.6 0 65.6-4.35 59.95 0.1Q58.95 0.5 57.45 0.5L57.45 0.5Q52.65 0.5 50.52-1.85 48.4-4.2 48.4-7.5L48.4-7.5Q48.4-9.45 49.6-11.33 50.8-13.2 53.05-14.8L53.05-14.8 65.6-14.8 65.6-15.65Q65.6-18.4 64.1-19.7 62.6-21 60.1-21L60.1-21Q56.6-21 50.95-18.25L50.95-18.25 49.45-21.1 56.4-26.7Q58.95-27.45 62.35-27.45L62.35-27.45Q67.95-27.45 71.02-24.9 74.1-22.35 74.1-17.5L74.1-17.5 74.1-5 78.6-3.25ZM60-6.2Q62.55-6.2 65.6-8.3L65.6-8.3 65.6-11.5 57.55-11.5Q57.15-10.9 56.97-10.38 56.8-9.85 56.8-9.2L56.8-9.2Q56.8-7.95 57.67-7.1 58.55-6.25 60-6.25L60-6.25 60-6.2ZM110.45-26.95L110.45-24.15 97.65 0 91.34 0 83.9-18.1 79.05-20.9 79.05-23.7 90.09-27.9 92-20.35 97.45-7.05 103.5-18.85 96.34-23.7 97.95-26.95 110.45-26.95ZM143.04-3.25L141.44 0 130.04 0 130.04-4.35 124.39 0.1Q123.39 0.5 121.89 0.5L121.89 0.5Q117.09 0.5 114.97-1.85 112.84-4.2 112.84-7.5L112.84-7.5Q112.84-9.45 114.04-11.33 115.24-13.2 117.49-14.8L117.49-14.8 130.04-14.8 130.04-15.65Q130.04-18.4 128.54-19.7 127.04-21 124.54-21L124.54-21Q121.04-21 115.39-18.25L115.39-18.25 113.89-21.1 120.84-26.7Q123.39-27.45 126.79-27.45L126.79-27.45Q132.39-27.45 135.47-24.9 138.54-22.35 138.54-17.5L138.54-17.5 138.54-5 143.04-3.25ZM124.44-6.2Q126.99-6.2 130.04-8.3L130.04-8.3 130.04-11.5 121.99-11.5Q121.59-10.9 121.42-10.38 121.24-9.85 121.24-9.2L121.24-9.2Q121.24-7.95 122.12-7.1 122.99-6.25 124.44-6.25L124.44-6.25 124.44-6.2ZM162.39-20.35Q160.59-20.35 158.79-18.75L158.79-18.75 158.79-5.25 166.39-3.25 164.79 0 145.84 0 145.84-2.8 150.29-6.55 150.29-17.9 145.84-20.7 145.84-23.5 156.24-27.9 158.14-22.35 162.69-27.05Q163.74-27.45 165.14-27.45L165.14-27.45Q167.74-27.45 169.62-26.25 171.49-25.05 172.24-22.95L172.24-22.95 167.44-16.95 164.29-16.95Q164.24-18.75 163.79-19.53 163.34-20.3 162.39-20.3L162.39-20.3 162.39-20.35ZM191.74-3.25L190.09 0 174.29 0 174.29-2.8 178.74-6.55 178.74-18.15 174.29-21.1 174.29-23.9 184.09-27.9 187.24-27.9 187.24-4.75 191.74-3.25ZM182.94-42.95Q185.09-42.95 186.46-41.58 187.84-40.2 187.84-38.15L187.84-38.15Q187.84-36.7 186.84-35.45 185.84-34.2 184.34-33.45 182.84-32.7 181.44-32.7L181.44-32.7Q179.34-32.7 177.96-34.08 176.59-35.45 176.59-37.5L176.59-37.5Q176.59-38.95 177.59-40.2 178.59-41.45 180.06-42.2 181.54-42.95 182.94-42.95L182.94-42.95Z" opacity="1" transform="matrix(1,0,0,1,0,0)" fill="#000000" class="undefined-text-0" data-fill-palette-color="primary" id="text-0"></path></svg></g></svg></g></svg></g></svg></g><g transform="matrix(1,0,0,1,77.77199551779827,0)"><svg viewBox="0 0 88.88736896440345 77.16924217741324" height="77.16924217741324" width="88.88736896440345"><g><svg xmlns="http://www.w3.org/2000/svg" xmlns:xlink="http://www.w3.org/1999/xlink" version="1.1" x="0" y="0" viewBox="10.276161361021783 15.776737699845338 79.73479437374179 69.22326230015466" style="enable-background:new 0 0 100 100;" xml:space="preserve" height="77.16924217741324" width="88.88736896440345" class="icon-icon-0" data-fill-palette-color="accent" id="icon-0"><path d="M89.7 79.9c-0.9 3-3.5 5-6.7 5L17.3 85c0 0 0 0 0 0-3.1 0-5.8-1.9-6.7-4.9-0.9-3 0.1-6 2.7-7.8l33.3-27 0.1 0c0.6-0.4 1.2-0.7 1.8-0.8l0-7.2c0-0.3-0.2-0.6-0.5-0.7-4.8-1-8.3-5.4-8.3-10.3 0-2.9 1.1-5.6 3.2-7.6 2.1-2 4.8-3.1 7.7-2.9 5.6 0.2 10 4.7 10.1 10.3 0 0.5 0 0.9-0.1 1.3-0.1 1-1.2 1.8-2.1 1.3h0c-0.8-0.2-1.2-0.9-1.2-1.7 0-0.3 0.1-0.6 0-0.9-0.1-3.8-3.2-6.9-6.9-7.1-2-0.1-3.9 0.6-5.3 2-1.4 1.4-2.2 3.2-2.2 5.2 0 3.4 2.4 6.4 5.7 7.1 0.8 0.2 1.5 0.6 2 1.1 0.8 0.8 1.1 1.9 1.1 3v8.2c0 1-0.7 1.8-1.7 1.9-0.5 0-1 0.2-1.5 0.5L23.4 68.3l48.5 0.1c0.6 0 1.1 0.3 1.4 0.8 0.8 1.4 0.1 2.5-1.5 2.5l-52.6 0 0.5-0.4-4.5 3.6-0.1 0c-1.7 1.1-1.8 2.9-1.5 4.1 0.4 1.3 1.5 2.6 3.5 2.6 0 0 0 0 0 0L83 81.6c2 0 3.1-1.3 3.5-2.6 0.4-1.3 0.2-3-1.5-4.1l-0.1-0.1-29.8-24c-0.4-0.3-0.6-0.8-0.6-1.3v0c0-1.4 1.6-2.2 2.7-1.3l29.8 23.9C89.5 73.9 90.6 76.9 89.7 79.9z" fill="#d2d6dc" data-fill-palette-color="accent"></path></svg></g></svg></g><g></g></svg></g></svg></g></svg></g><g><path d="M145.149 37.323A122.216 122.216 0 0 1 250.371 37.323L245.336 37.323A117.18 117.18 0 0 0 150.184 37.323L145.149 37.323M145.149 209.877A122.216 122.216 0 0 0 250.371 209.877L245.336 209.877A117.18 117.18 0 0 1 150.184 209.877L145.149 209.877" fill="#000000" stroke="transparent" data-fill-palette-color="tertiary"></path></g></svg></g><defs></defs></svg><rect width="395.52" height="247.2" fill="none" stroke="none" visibility="hidden"></rect></g></svg></g></svg>



